#!OML:ASF H:\Terrain\Patient Classification 1\Walking\liu\liu.ASF
:FULLY-SPECIFIED
:DEGREES
270
root 9.54911 16.4472 30.6553 8.80815 -3.964 -4.47276
lowerback -4.99778 3.92782 -0.440661
upperback -1.10319 5.20989 2.93855
thorax 1.34349 2.60629 3.57472
lowerneck -20.555 -4.71798 -12.1747
upperneck 22.7117 -5.74093 11.4612
head 11.5133 -2.25456 5.39687
rclavicle -3.6303e-014 9.14409e-015
rhumerus -14.3907 25.1469 -82.114
rradius 51.2458
rwrist -19.3907
rhand -30.2663 -18.9985
rfingers 7.12502
rthumb -3.57467 -48.9482
lclavicle -3.6303e-014 9.14409e-015
lhumerus -59.4861 16.0617 51.5268
lradius 7.40306
lwrist -34.906
lhand -14.9881 -23.0051
lfingers 7.12502
lthumb 11.1762 6.67724
rfemur 19.8112 1.90124 25.5133
rtibia 17.1843
rfoot 5.74995 1.82835
rtoes -18.7519
lfemur -50.6412 3.92082 -17.7353
ltibia 38.3195
lfoot 0.366113 3.78226
ltoes -2.97933
271
root 9.57604 16.3995 30.9265 8.55298 -3.79879 -3.9846
lowerback -7.51854 3.79787 -0.772802
upperback 1.05544 4.99914 2.81217
thorax 4.98914 2.41383 3.9368
lowerneck -22.3108 -4.73264 -11.5593
upperneck 21.4807 -5.56025 11.0627
head 11.3301 -2.11418 5.12062
rclavicle 4.4329e-014 4.37326e-015
rhumerus -10.6785 24.7241 -80.5333
rradius 50.4807
rwrist -19.4149
rhand -31.161 -20.2881
rfingers 7.12502
rthumb -4.43857 -50.2216
lclavicle 4.4329e-014 4.37326e-015
lhumerus -56.2107 18.7288 52.5193
lradius 6.27507
lwrist -34.7997
lhand -15.2071 -22.3124
lfingers 7.12502
lthumb 10.965 7.38124
rfemur 18.7676 0.961148 24.47
rtibia 21.3182
rfoot 7.81756 1.13958
rtoes -14.4972
lfemur -50.8857 4.38145 -18.9255
ltibia 40.5503
lfoot 0.0523293 2.31236
ltoes -4.87533
272
root 9.59357 16.368 31.1782 8.46755 -3.53753 -4.29206
lowerback -7.04345 3.75293 -0.559439
upperback 0.731522 4.9248 2.90886
thorax 4.39735 2.39653 3.85324
lowerneck -21.968 -4.95275 -11.9401
upperneck 21.5062 -5.86912 11.3833
head 11.3413 -2.25715 5.25777
rclavicle 4.51241e-014 1.98785e-015
rhumerus -11.6662 24.6882 -80.959
rradius 49.9662
rwrist -19.3491
rhand -32.2464 -19.9712
rfingers 7.12502
rthumb -5.48667 -49.8802
lclavicle 4.51241e-014 1.98785e-015
lhumerus -56.3228 18.7081 52.4353
lradius 5.93471
lwrist -34.7904
lhand -15.2367 -22.237
lfingers 7.12502
lthumb 10.9365 7.45818
rfemur 17.3711 0.0398457 24.4482
rtibia 25.4941
rfoot 9.43426 1.19478
rtoes -15.2567
lfemur -51.1295 4.91124 -19.149
ltibia 42.3906
lfoot -0.286873 1.12191
ltoes -4.70362
273
root 9.62648 16.3664 31.4304 7.822 -2.73232 -3.93492
lowerback -5.51781 3.5278 -0.848652
upperback 0.210049 4.66905 2.92862
thorax 2.99135 2.29504 3.86466
lowerneck -21.6457 -5.07631 -12.5228
upperneck 21.9732 -6.01482 11.7281
head 11.509 -2.34227 5.48527
rclavicle 1.83876e-015 -3.97569e-015
rhumerus -13.3481 24.8127 -81.522
rradius 49.5669
rwrist -19.9857
rhand -33.0943 -19.1519
rfingers 7.12502
rthumb -6.30528 -49.0381
lclavicle 1.83876e-015 -3.97569e-015
lhumerus -56.7942 18.4153 52.4663
lradius 5.82212
lwrist -34.2529
lhand -14.6687 -21.5739
lfingers 7.12502
lthumb 11.4843 8.09157
rfemur 16.4133 -1.7075 23.6807
rtibia 29.7635
rfoot 10.6225 1.77824
rtoes -19.7652
lfemur -50.3426 4.48434 -19.8345
ltibia 43.6795
lfoot -0.962113 0.611947
ltoes -3.44835
274
root 9.6518 16.411 31.6933 7.78873 -3.08062 -2.96337
lowerback -5.16254 3.58703 -1.90439
upperback -0.13197 4.82709 2.66706
thorax 2.36352 2.37801 4.14845
lowerneck -21.3985 -4.95565 -12.4857
upperneck 22.2165 -5.88155 11.6401
head 11.5286 -2.2977 5.47703
rclavicle -1.41137e-014 -2.54444e-014
rhumerus -14.3488 24.715 -81.9919
rradius 49.0344
rwrist -20.3995
rhand -33.2628 -19.3566
rfingers 7.12502
rthumb -6.46796 -49.2379
lclavicle -1.41137e-014 -2.54444e-014
lhumerus -56.9624 18.3607 52.4056
lradius 5.7319
lwrist -33.9605
lhand -14.6389 -21.6948
lfingers 7.12502
lthumb 11.513 7.96899
rfemur 14.5272 -2.34776 22.0265
rtibia 34.2041
rfoot 12.0751 0.88404
rtoes -18.1411
lfemur -49.6584 4.60248 -21.039
ltibia 44.4785
lfoot -2.04153 0.536481
ltoes -0.613256
275
root 9.68559 16.4648 31.9636 7.6177 -3.66394 -1.46855
lowerback -6.03106 3.6793 -3.12672
upperback 0.565489 5.05941 2.09872
thorax 3.4995 2.44009 4.3605
lowerneck -21.5695 -4.96192 -12.4278
upperneck 21.6019 -5.88652 11.8167
head 11.3359 -2.2662 5.51028
rclavicle 2.54444e-014 6.75868e-015
rhumerus -13.3912 24.4208 -81.9007
rradius 48.003
rwrist -20.6965
rhand -33.6086 -19.6493
rfingers 7.12502
rthumb -6.80172 -49.52
lclavicle 2.54444e-014 6.75868e-015
lhumerus -55.5819 19.2596 52.6683
lradius 5.8616
lwrist -32.7211
lhand -12.9652 -21.0222
lfingers 7.12502
lthumb 13.1268 8.54466
rfemur 12.5354 -2.20884 19.9106
rtibia 38.6869
rfoot 13.0133 -2.08043
rtoes -12.1603
lfemur -48.451 4.70388 -22.7627
ltibia 44.8408
lfoot -3.3605 0.569677
ltoes 2.28061
276
root 9.72363 16.4827 32.2139 7.12174 -4.05689 0.217818
lowerback -6.70012 3.63296 -4.45135
upperback 1.54263 5.15932 1.55714
thorax 4.82395 2.40314 4.6499
lowerneck -22.5759 -5.13257 -12.2452
upperneck 21.4408 -5.99578 11.5891
head 11.4694 -2.29764 5.36609
rclavicle -7.58364e-014 2.0276e-014
rhumerus -12.062 23.9062 -81.7195
rradius 46.9535
rwrist -20.8889
rhand -33.502 -20.2049
rfingers 7.12502
rthumb -6.6988 -50.0789
lclavicle -7.58364e-014 2.0276e-014
lhumerus -54.0208 20.6725 53.112
lradius 5.26634
lwrist -33.8985
lhand -15.042 -22.0154
lfingers 7.12502
lthumb 11.1242 7.66971
rfemur 11.0923 -2.5825 17.6698
rtibia 43.2239
rfoot 12.7261 -4.36122
rtoes -13.3984
lfemur -46.8293 4.69525 -24.7226
ltibia 44.9566
lfoot -4.6822 0.763093
ltoes 2.39071
